<svg xmlns="http://www.w3.org/2000/svg" version="1.1" xmlns:xlink="http://www.w3.org/1999/xlink" xmlns:svgjs="http://svgjs.dev/svgjs" width="1000" height="1000" viewBox="0 0 1000 1000"><rect width="1000" height="1000" fill="#ffffff"></rect><g transform="matrix(0.7,0,0,0.7,149.57575757575756,392.97657614524)"><svg viewBox="0 0 396 121" data-background-color="#35185a" preserveAspectRatio="xMidYMid meet" height="305" width="1000" xmlns="http://www.w3.org/2000/svg" xmlns:xlink="http://www.w3.org/1999/xlink"><g id="tight-bounds" transform="matrix(1,0,0,1,0.2400000000000091,0.1549615289272026)"><svg viewBox="0 0 395.52 120.69007694214557" height="120.69007694214557" width="395.52"><g><svg viewBox="0 0 622.1942715078721 189.8580969388332" height="120.69007694214557" width="395.52"><g transform="matrix(1,0,0,1,226.67427150787222,55.94141888292854)"><svg viewBox="0 0 395.52 77.97525917297612" height="77.97525917297612" width="395.52"><g id="textblocktransform"><svg viewBox="0 0 395.52 77.97525917297612" height="77.97525917297612" width="395.52" id="textblock"><g><svg viewBox="0 0 395.52 77.97525917297612" height="77.97525917297612" width="395.52"><g transform="matrix(1,0,0,1,0,0)"><svg width="395.52" viewBox="4.699999809265137 -33.77000045776367 173.60000610351562 34.22999954223633" height="77.97525917297612" data-palette-color="#a437db"><g class="undefined-text-0" data-fill-palette-color="primary" id="text-0"><path d="M6.93-24.92L6.93-24.92 6.93 0 4.7 0 4.7-33.27 8.29-33.27 20.1-3.99 20.22-3.99 32-33.27 35.52-33.27 35.52 0 33.16 0 33.16-25.2Q33.16-27.73 33.44-30.66L33.44-30.66 33.27-30.66 20.8 0 19.34 0 6.93-30.71 6.75-30.71Q6.93-28.06 6.93-24.92ZM45.7 0.46L45.7 0.46Q43.88 0.46 43.88-1.77 43.88-3.99 45.7-3.99L45.7-3.99Q47.57-3.99 47.57-1.77 47.57 0.46 45.7 0.46ZM74.14-2.17L74.14 0 55.96 0 55.96-33.27 58.29-33.27 58.29-2.17 74.14-2.17ZM82.2-33.27L82.2 0 79.87 0 79.87-33.27 82.2-33.27ZM114.58-14.59L104.69-14.59 104.69-16.76 116.95-16.76 116.95-1.59Q112.12 0.46 106.11 0.46L106.11 0.46Q98.25 0.46 94.04-3.98 89.83-8.42 89.83-16.58L89.83-16.58Q89.83-21.69 91.91-25.59 94-29.5 97.88-31.64 101.76-33.77 107-33.77 112.25-33.77 116.55-31.77L116.55-31.77 115.61-29.68Q111.26-31.7 106.64-31.7L106.64-31.7Q100.07-31.7 96.21-27.63 92.36-23.56 92.36-16.68L92.36-16.68Q92.36-9.2 96.01-5.4 99.66-1.59 106.79-1.59L106.79-1.59Q111.37-1.59 114.58-2.88L114.58-2.88 114.58-14.59ZM147.06-33.27L149.38-33.27 149.38 0 147.06 0 147.06-16.35 127.62-16.35 127.62 0 125.29 0 125.29-33.27 127.62-33.27 127.62-18.5 147.06-18.5 147.06-33.27ZM178.3-31.07L167.48-31.07 167.48 0 165.13 0 165.13-31.07 154.33-31.07 154.33-33.27 178.3-33.27 178.3-31.07Z" fill="#000000" data-fill-palette-color="primary"></path></g></svg></g></svg></g></svg></g></svg></g><g><svg viewBox="0 0 189.8580969388332 189.8580969388332" height="189.8580969388332" width="189.8580969388332"><g><svg></svg></g><g id="icon-0"><svg viewBox="0 0 189.8580969388332 189.8580969388332" height="189.8580969388332" width="189.8580969388332"><g><path d="M0 94.929c0-52.428 42.501-94.929 94.929-94.929 52.428 0 94.929 42.501 94.929 94.929 0 52.428-42.501 94.929-94.929 94.929-52.428 0-94.929-42.501-94.929-94.929zM94.929 182.826c48.544 0 87.897-39.353 87.897-87.897 0-48.544-39.353-87.897-87.897-87.897-48.544 0-87.897 39.353-87.897 87.897 0 48.544 39.353 87.897 87.897 87.897z" data-fill-palette-color="accent" fill="#000000" stroke="transparent"></path></g><g transform="matrix(1,0,0,1,39.993782843324766,51.87164775731171)"><svg viewBox="0 0 109.87053125218367 86.11480142420977" height="86.11480142420977" width="109.87053125218367"><g><svg xmlns="http://www.w3.org/2000/svg" xmlns:xlink="http://www.w3.org/1999/xlink" version="1.1" x="0" y="0" viewBox="0 0 99.63200378417969 78.09000396728516" enable-background="new 0 0 99.633 78.09" xml:space="preserve" width="109.87053125218367" height="86.11480142420977" class="icon-s-0" data-fill-palette-color="accent" id="s-0"><g fill="#b19dd0" data-fill-palette-color="accent"><path d="M96.941 0H2.693C1.205 0 0 1.206 0 2.693v56.548c0 1.489 1.205 2.694 2.693 2.694h43.085v10.771h-8.079c-1.488 0-2.693 1.204-2.693 2.692 0 1.485 1.205 2.692 2.693 2.692h21.542c1.488 0 2.692-1.207 2.692-2.692 0-1.488-1.204-2.692-2.692-2.692h-8.078V61.935h45.777c1.488 0 2.692-1.205 2.692-2.694V2.693C99.633 1.206 98.429 0 96.941 0zM94.248 56.548H5.386V5.385h88.861V56.548z" fill="#000000" data-fill-palette-color="accent"></path><path d="M43.264 41.276c0.063 0.177 0.155 0.33 0.25 0.488 0.063 0.101 0.084 0.217 0.16 0.311 0.029 0.037 0.074 0.048 0.105 0.082 0.19 0.212 0.413 0.376 0.66 0.521 0.084 0.05 0.153 0.123 0.24 0.163 0.336 0.15 0.705 0.244 1.099 0.244l0 0c0.002 0 0.002 0 0.002 0 0.327 0 0.65-0.073 0.963-0.194 0.116-0.045 0.213-0.116 0.321-0.176 0.131-0.074 0.273-0.121 0.396-0.219l10.771-8.619c0.092-0.074 0.14-0.177 0.219-0.26 0.06-0.064 0.145-0.09 0.202-0.161 0.052-0.066 0.065-0.146 0.11-0.214 0.103-0.154 0.179-0.311 0.247-0.48 0.063-0.159 0.118-0.314 0.149-0.48 0.032-0.17 0.04-0.333 0.043-0.507-0.003-0.173-0.011-0.336-0.043-0.507-0.031-0.166-0.086-0.321-0.149-0.48-0.068-0.169-0.145-0.326-0.247-0.479-0.045-0.069-0.059-0.149-0.11-0.215-0.066-0.08-0.158-0.119-0.229-0.19-0.07-0.072-0.109-0.166-0.191-0.23L47.46 21.054c-0.095-0.074-0.208-0.097-0.308-0.157-0.161-0.099-0.313-0.192-0.494-0.256-0.177-0.062-0.353-0.083-0.537-0.107-0.118-0.016-0.221-0.07-0.344-0.07-0.053 0-0.095 0.026-0.147 0.031-0.182 0.009-0.352 0.059-0.529 0.106-0.168 0.044-0.333 0.078-0.486 0.153-0.143 0.066-0.261 0.168-0.39 0.26-0.158 0.114-0.311 0.222-0.439 0.368-0.034 0.037-0.082 0.054-0.113 0.093-0.076 0.095-0.097 0.209-0.16 0.311-0.095 0.158-0.187 0.31-0.25 0.487-0.063 0.181-0.086 0.361-0.11 0.548-0.016 0.114-0.068 0.217-0.068 0.336v17.235c0 0.119 0.053 0.223 0.068 0.337C43.177 40.915 43.201 41.095 43.264 41.276zM48.47 28.761l3.769 3.014-3.769 3.014V28.761z" fill="#000000" data-fill-palette-color="accent"></path></g></svg></g></svg></g></svg></g></svg></g></svg></g><defs></defs></svg><rect width="395.52" height="120.69007694214557" fill="none" stroke="none" visibility="hidden"></rect></g></svg></g></svg>